<svg width="0" height="0" class="hidden">

	<symbol preserveAspectRatio="xMidYMid" fill="currentColor" viewBox="0 0 24 24"
		xmlns="http://www.w3.org/2000/svg" id="edit">
		<path fill="currentColor"
			d="M21,12a1,1,0,0,0-1,1v6a1,1,0,0,1-1,1H5a1,1,0,0,1-1-1V5A1,1,0,0,1,5,4h6a1,1,0,0,0,0-2H5A3,3,0,0,0,2,5V19a3,3,0,0,0,3,3H19a3,3,0,0,0,3-3V13A1,1,0,0,0,21,12ZM6,12.76V17a1,1,0,0,0,1,1h4.24a1,1,0,0,0,.71-.29l6.92-6.93h0L21.71,8a1,1,0,0,0,0-1.42L17.47,2.29a1,1,0,0,0-1.42,0L13.23,5.12h0L6.29,12.05A1,1,0,0,0,6,12.76ZM16.76,4.41l2.83,2.83L18.17,8.66,15.34,5.83ZM8,13.17l5.93-5.93,2.83,2.83L10.83,16H8Z" />
	</symbol>

	<symbol preserveAspectRatio="xMidYMid" xmlns="http://www.w3.org/2000/svg" viewBox="0 0 24 24"
		id="delete">
		<path
			d="M7 4a2 2 0 0 1 2-2h6a2 2 0 0 1 2 2v2h4a1 1 0 1 1 0 2h-1.069l-.867 12.142A2 2 0 0 1 17.069 22H6.93a2 2 0 0 1-1.995-1.858L4.07 8H3a1 1 0 0 1 0-2h4V4zm2 2h6V4H9v2zM6.074 8l.857 12H17.07l.857-12H6.074zM10 10a1 1 0 0 1 1 1v6a1 1 0 1 1-2 0v-6a1 1 0 0 1 1-1zm4 0a1 1 0 0 1 1 1v6a1 1 0 1 1-2 0v-6a1 1 0 0 1 1-1z"
			fill="currentColor" />
	</symbol>

	<symbol>
		<svg fill="currentColor" viewBox="0 0 24 24" version="1.2" baseProfile="tiny"
			xmlns="http://www.w3.org/2000/svg" id="plus">
			<path
				d="M18 10h-4v-4c0-1.104-.896-2-2-2s-2 .896-2 2l.071 4h-4.071c-1.104 0-2 .896-2 2s.896 2 2 2l4.071-.071-.071 4.071c0 1.104.896 2 2 2s2-.896 2-2v-4.071l4 .071c1.104 0 2-.896 2-2s-.896-2-2-2z" />
		</svg>
	</symbol>

	<symbol>
		<svg viewBox="0 0 15 15" fill="none" xmlns="http://www.w3.org/2000/svg" id="folder">
			<path
				d="M3.5 8.5V1.5C3.5 0.947715 3.94772 0.5 4.5 0.5H7.5L9.5 2.5H13.5C14.0523 2.5 14.5 2.94772 14.5 3.5V8.5C14.5 9.05228 14.0523 9.5 13.5 9.5H4.5M3.5 8.5C3.5 9.05229 3.94772 9.5 4.5 9.5M3.5 8.5V5.5H1.5C0.947715 5.5 0.5 5.94772 0.5 6.5V13.5C0.5 14.0523 0.947715 14.5 1.5 14.5H10.5C11.0523 14.5 11.5 14.0523 11.5 13.5V9.5H4.5"
				stroke="currentColor" />
		</svg>
	</symbol>
</svg>